Coordinates
version=1
nRows=5
nColumns=40
inDegrees=yes

Units are S.I. units (second, meters, Newtons, ...)
Angles are in degrees.

endheader
time	pelvis_tilt	pelvis_list	pelvis_rotation	pelvis_tx	pelvis_ty	pelvis_tz	hip_flexion_r	hip_adduction_r	hip_rotation_r	knee_angle_r	knee_angle_r_beta	ankle_angle_r	subtalar_angle_r	mtp_angle_r	hip_flexion_l	hip_adduction_l	hip_rotation_l	knee_angle_l	knee_angle_l_beta	ankle_angle_l	subtalar_angle_l	mtp_angle_l	lumbar_extension	lumbar_bending	lumbar_rotation	arm_flex_r	arm_add_r	arm_rot_r	elbow_flex_r	pro_sup_r	wrist_flex_r	wrist_dev_r	arm_flex_l	arm_add_l	arm_rot_l	elbow_flex_l	pro_sup_l	wrist_flex_l	wrist_dev_l
      5.80000000	     -2.89473530	     -5.90432671	      5.81257232	      0.93658412	      0.93252687	      0.52401896	     10.30303228	      4.27307166	    -17.52648033	     13.98836411	     13.98836411	      8.76298809	     -0.48202909	     -4.17978448	     33.55792809	    -11.24569759	      5.40716155	     65.38419963	     65.38419963	      7.83192343	    -17.55652425	     10.14486941	    -11.80673455	      7.38038817	      2.66741842	     20.42710865	    -19.11237171	     -0.37927660	     61.07648824	     30.38604429	      0.00000000	      0.00000000	      4.48830282	     -8.13077211	     -2.52303248	     40.88375549	     31.20677278	      0.00000000	      0.00000000
      5.81128571	     -3.02827936	     -5.89292132	      5.75530620	      0.93547936	      0.93235552	      0.52467373	      9.87377030	      4.41531663	    -17.22941905	     13.82542774	     13.82542774	      9.09564690	     -0.77392362	     -4.16709425	     34.77741236	    -11.30774546	      5.08741797	     62.81429097	     62.81429097	      8.08167085	    -17.90449554	     10.16199148	    -11.81082240	      7.27503993	      2.60064866	     22.60597424	    -18.99209174	     -0.26472525	     64.22700067	     30.96800244	      0.00000000	      0.00000000	      3.22171684	     -8.10722217	     -2.48005970	     38.45434855	     31.95200320	      0.00000000	      0.00000000
      5.82257143	     -3.11854423	     -5.83671983	      5.66848154	      0.93430825	      0.93236994	      0.52535521	      9.43855239	      4.47428174	    -17.03986345	     13.75018346	     13.75018346	      9.48659574	     -0.68694799	     -4.02670659	     35.65320749	    -11.31110357	      4.72795645	     59.81213175	     59.81213175	      8.09969074	    -18.14761812	     10.25972490	    -11.94764687	      7.07332881	      2.95119644	     24.50974408	    -19.26925329	     -0.06312070	     67.46546114	     32.17922641	      0.00000000	      0.00000000	      2.79345266	     -7.71822451	     -2.94242398	     34.59355154	     33.43932526	      0.00000000	      0.00000000
      5.83385714	     -3.18924799	     -5.73210313	      5.58924992	      0.93330980	      0.93232365	      0.52590825	      8.95613660	      4.48260784	    -16.84125236	     13.64090084	     13.64090084	      9.83857545	     -0.68992740	     -4.05557496	     36.26038207	    -11.19893162	      4.38891266	     56.54731172	     56.54731172	      8.24051564	    -18.21746470	     10.72537257	    -12.07126330	      6.81796344	      2.76376809	     27.08008493	    -18.72479996	     -0.27826663	     69.45933274	     32.31545667	      0.00000000	      0.00000000	      1.30197554	     -7.80260077	     -2.92583677	     33.09423085	     33.64220299	      0.00000000	      0.00000000
      5.84514286	     -3.29837983	     -5.66169840	      5.50983548	      0.93236485	      0.93216092	      0.52633239	      8.50912826	      4.50861394	    -16.70016412	     13.51510609	     13.51510609	     10.20787496	     -0.61721696	     -4.06404293	     36.72636257	    -11.03102323	      4.16385406	     53.08193051	     53.08193051	      8.33116073	    -18.13708454	     11.18736988	    -12.13431937	      6.62344670	      2.60883288	     29.53934187	    -18.25792981	     -0.28646934	     71.53813444	     32.44685272	      0.00000000	      0.00000000	      0.03026248	     -7.80059724	     -2.93347425	     31.24051103	     33.86388090	      0.00000000	      0.00000000
